<?xml version="1.0" encoding="utf-8"?>
<!-- Generator: Adobe Illustrator 27.5.0, SVG Export Plug-In . SVG Version: 6.00 Build 0)  -->
<svg version="1.1" xmlns="http://www.w3.org/2000/svg" xmlns:xlink="http://www.w3.org/1999/xlink" x="0px" y="0px"
	 viewBox="0 0 3710 3710" style="enable-background:new 0 0 3710 3710;" xml:space="preserve">
<g id="Background">
	<g>
		<g>
			<rect style="fill:#000000;" width="3710px" height="3710px"/>
		</g>
	</g>
</g>
<g id="Illustration">
	<g>
		<linearGradient id="SVGID_1_" gradientUnits="userSpaceOnUse" x1="3610.8569" y1="4081.4114" x2="1119.3824" y2="987.1564">
			<stop  offset="0" style="stop-color:#DAE3FE"/>
			<stop  offset="1" style="stop-color:#E9EFFD"/>
		</linearGradient>
		<path style="fill:url(#SVGID_1_);" d="M2925.436,2861.149c-57.228,60.247-111.376,99.1-154.159,129.797
			c-502.893,360.831-1097.948,255.651-1224.415,229.964c-186.751-37.93-547.736-111.248-808.721-418.162
			c-394.85-464.335-333.366-1195.882-27.094-1678.786c56.022-88.331,351.946-578.591,953.411-657.214
			c364-47.581,788.307,48.385,1095.578,305.817C3405.028,1312.939,3359.111,2404.59,2925.436,2861.149z"/>
		<path style="fill:#91B3FA;" d="M2544.091,1687.322c-0.242,0-0.481-0.006-0.726-0.018c-7.342-0.368-13.172-6.247-13.402-13.513
			l-13.613-431.973l-31.914,213.125c-1.048,7.01-7.308,12.114-14.41,11.913c-7.167-0.22-13.028-5.713-13.635-12.777l-26.997-314.139
			l-34.782,372.3c-0.576,6.169-5.193,11.226-11.345,12.421c-6.128,1.193-12.356-1.763-15.25-7.259l-93.604-177.886h-944.045
			l-56.764,308.621c-1.245,6.774-7.308,11.637-14.258,11.463c-6.962-0.176-12.753-5.342-13.647-12.17l-73.969-565.327
			l-73.041,216.962c-2.141,6.36-8.577,10.315-15.272,9.432c-6.721-0.888-11.855-6.371-12.234-13.065l-14.985-265.3l-83.362,474.413
			c-1.137,6.475-6.689,11.292-13.33,11.564c-6.603,0.251-12.577-4.068-14.255-10.429l-63.462-240.539l-54.85,107.544
			c-2.402,4.707-7.28,7.677-12.612,7.677H600.44c-7.801,0-14.125-6.253-14.125-13.966c0-7.714,6.324-13.966,14.125-13.966H805.63
			l67.773-132.885c2.645-5.187,8.266-8.218,14.105-7.598c5.844,0.614,10.692,4.74,12.176,10.363l56.465,214.019l93.349-531.256
			c1.229-6.995,7.581-11.969,14.737-11.551c7.168,0.412,12.882,6.075,13.284,13.163l17.744,314.115l69.154-205.42
			c2.08-6.18,8.211-10.119,14.76-9.49c6.557,0.626,11.805,5.65,12.651,12.11l70.233,536.779l42.622-231.728
			c1.221-6.641,7.07-11.467,13.897-11.467h964.406c5.27,0,10.1,2.899,12.531,7.52l75.383,143.262l45.018-481.839
			c0.671-7.186,6.768-12.681,14.064-12.681c0.018,0,0.034,0,0.052,0c7.317,0.027,13.402,5.575,14.021,12.784l30.209,351.526
			l37.305-249.131c1.07-7.153,7.394-12.308,14.79-11.898c7.302,0.42,13.074,6.28,13.301,13.509l13.178,418.149l39.708-294.414
			c0.938-6.941,6.925-12.12,14.002-12.12c0,0,0.025,0,0.04,0c7.093,0.02,13.071,5.237,13.972,12.195l29.516,228.305l27.843-107.457
			c1.542-5.951,6.836-10.208,13.043-10.487c6.269-0.268,11.872,3.489,13.95,9.276l91.544,254.698l95.771-252.523
			c2.069-5.451,7.338-9.062,13.227-9.062h199.235c7.801,0,14.125,6.253,14.125,13.966s-6.324,13.966-14.125,13.966h-189.448
			l-105.914,279.274c-2.084,5.493-7.424,8.973-13.35,9.062c-5.931-0.052-11.201-3.763-13.187-9.29l-88.993-247.604l-34.681,133.852
			c-1.683,6.491-7.795,10.898-14.557,10.473c-6.765-0.414-12.277-5.521-13.138-12.167l-25.169-194.665l-48.169,357.141
			C2557.143,1682.169,2551.126,1687.322,2544.091,1687.322z"/>
		<path style="fill:#91B3FA;" d="M2659.284,2753.9c-0.253,0-0.504-0.006-0.76-0.019c-7.686-0.386-13.79-6.54-14.031-14.148
			l-14.253-452.259l-33.412,223.133c-1.097,7.34-7.651,12.683-15.087,12.472c-7.503-0.23-13.639-5.981-14.275-13.377
			l-28.264-328.891l-36.416,389.783c-0.604,6.459-5.437,11.754-11.878,13.004c-6.415,1.249-12.937-1.845-15.966-7.6l-97.999-186.24
			H1199.321l-59.43,323.114c-1.303,7.092-7.651,12.183-14.928,12.001c-7.288-0.184-13.352-5.593-14.288-12.742l-77.442-591.875
			l-76.471,227.15c-2.242,6.659-8.98,10.8-15.989,9.875c-7.036-0.93-12.412-6.67-12.808-13.678l-15.689-277.758L825,2562.539
			c-1.191,6.78-7.003,11.822-13.956,12.107c-6.913,0.263-13.168-4.258-14.925-10.919l-66.442-251.834l-57.426,112.595
			c-2.515,4.928-7.622,8.038-13.205,8.038h-114.49c-8.168,0-14.788-6.546-14.788-14.622c0-8.076,6.621-14.622,14.788-14.622h105.385
			l70.956-139.126c2.77-5.431,8.654-8.604,14.768-7.955c6.118,0.643,11.194,4.963,12.747,10.849l59.117,224.069l97.733-556.203
			c1.287-7.324,7.937-12.531,15.429-12.093c7.505,0.432,13.487,6.361,13.907,13.781l18.577,328.865l72.402-215.067
			c2.177-6.47,8.596-10.594,15.453-9.935c6.865,0.655,12.359,5.915,13.245,12.679l73.531,561.986l44.624-242.61
			c1.279-6.952,7.402-12.006,14.549-12.006h1198.939c5.517,0,10.575,3.035,13.12,7.873l78.923,149.989l47.132-504.465
			c0.703-7.524,7.086-13.277,14.724-13.277c0.02,0,0.035,0,0.055,0c7.661,0.028,14.031,5.837,14.679,13.384l31.628,368.034
			l39.057-260.831c1.12-7.489,7.741-12.886,15.485-12.456c7.645,0.439,13.688,6.575,13.925,14.143l13.797,437.785l41.573-308.24
			c0.982-7.267,7.25-12.689,14.66-12.689c0,0,0.026,0,0.042,0c7.426,0.021,13.684,5.483,14.628,12.767l30.902,239.026l29.15-112.503
			c1.614-6.23,7.157-10.687,13.656-10.979c6.563-0.281,12.43,3.652,14.605,9.712l95.843,266.658l100.268-264.381
			c2.166-5.707,7.683-9.488,13.848-9.488h128.787c8.168,0,14.788,6.546,14.788,14.622c0,8.076-6.621,14.622-14.788,14.622h-118.54
			l-110.888,292.388c-2.182,5.751-7.773,9.394-13.976,9.488c-6.21-0.054-11.727-3.939-13.806-9.726l-93.173-259.231l-36.31,140.138
			c-1.762,6.795-8.161,11.409-15.241,10.965c-7.083-0.433-12.853-5.78-13.755-12.739l-26.352-203.807l-50.431,373.912
			C2672.949,2748.506,2666.649,2753.9,2659.284,2753.9z"/>
		<g>
			
				<linearGradient id="SVGID_00000075878153765658493000000002800116508732688780_" gradientUnits="userSpaceOnUse" x1="1604.3" y1="2801.6663" x2="2145.6653" y2="985.3105">
				<stop  offset="0" style="stop-color:#E1473D"/>
				<stop  offset="1" style="stop-color:#E9605A"/>
			</linearGradient>
			<path style="fill:url(#SVGID_00000075878153765658493000000002800116508732688780_);" d="M1018.6,1868.69
				c0,0-117.28,289.656,15.669,455.372c132.95,165.717,510.418,395.39,775.468,570.109
				c265.051,174.719,448.839,158.277,545.646,90.979c96.807-67.298,174.703-360.229,179.607-466.893
				c4.904-106.666,99.109-977.228-261.103-1056.753c0,0,11.48-42.667,57.431-22.984c45.951,19.684,107.496,66.442,107.496,66.442
				s187.869-137.056,95.128-285.549c0,0-363.503-135.318-511.191-123.805c-147.687,11.512-337.992,297.079-450.385,384.891
				C1459.974,1568.311,1088.325,1769.398,1018.6,1868.69z"/>
			
				<linearGradient id="SVGID_00000128450466632074632880000002272321069362060988_" gradientUnits="userSpaceOnUse" x1="1931.3286" y1="1455.3262" x2="2260.1951" y2="165.1602">
				<stop  offset="0" style="stop-color:#E1473D"/>
				<stop  offset="1" style="stop-color:#E9605A"/>
			</linearGradient>
			<path style="fill:url(#SVGID_00000128450466632074632880000002272321069362060988_);" d="M1557.571,1324.607
				c0,0,122.661,147.714,213.96,169.828c91.298,22.114,105.23-73.886,119.17-122.298c13.94-48.411,93.464-408.623,276.447-343.836
				l22.161,43.483c0,0,114.886,96.798,249.431,4.879c0,0,61.487-286.364-105.909-371.666
				C2165.434,619.695,1720.702,483.571,1557.571,1324.607z"/>
			
				<linearGradient id="SVGID_00000063635568301705843370000017507734974773884293_" gradientUnits="userSpaceOnUse" x1="1252.835" y1="2794.0791" x2="1387.7605" y2="905.1134">
				<stop  offset="0" style="stop-color:#E1473D"/>
				<stop  offset="1" style="stop-color:#E9605A"/>
			</linearGradient>
			<path style="fill:url(#SVGID_00000063635568301705843370000017507734974773884293_);" d="M1522.999,691.191
				c0,0-136.956,383.195-247.703,498.905C1164.55,1305.804,902.849,1520,885.693,1940.917
				c-17.156,420.918,89.484,283.056,133.772,179.665c44.289-103.39,437.251-417.708,616.925-503.892
				c179.674-86.183,178.011-209.258,40.98-254.361c-137.031-45.104-128.835-95.976-60.764-270.753
				c68.07-174.777,182.084-377.46,182.084-377.46S1747.784,515.565,1522.999,691.191z"/>
			<path style="opacity:0.48;fill:#FFFFFF;" d="M1803.773,1630.609c0,0-424.167,164.994-348.582,734.405
				c75.585,569.411,64.031,183.78,28.72,12.302c-35.312-171.478,21.28-303.587,73.79-315.083
				c52.509-11.497-61.47,381.541,41.114,507.059c102.584,125.518-32.843-129.633,1.579-352.813
				C1632.098,2010.91,1579.811,1820.182,1803.773,1630.609z"/>
			<path style="opacity:0.48;fill:#FFFFFF;" d="M2077.801,1530.46c0,0,295.366-70.615,358.607,289.573
				c63.241,360.187-80.315,536.618-113.922,726.158c-33.607,189.541,61.487-286.364,71.303-452.106
				c9.817-165.742,49.176-305.233-57.497-357.726c-106.674-52.493-232.15,288.034-331.417,361.076
				c-99.268,73.041-32.826-34.455,95.958-224.013C2229.619,1683.866,2460.98,1572.239,2077.801,1530.46z"/>
		</g>
		<g>
			
				<linearGradient id="SVGID_00000094586690769837398300000015778224609833994630_" gradientUnits="userSpaceOnUse" x1="174.0684" y1="3100.7148" x2="-429.7836" y2="3757.5371" gradientTransform="matrix(-1 0 0 1 2745.8667 0)">
				<stop  offset="0" style="stop-color:#09005D"/>
				<stop  offset="1" style="stop-color:#1A0F91"/>
			</linearGradient>
			<path style="fill:url(#SVGID_00000094586690769837398300000015778224609833994630_);" d="M2762.677,3149.644
				c0,0,6.253,35.403,9.32,70.447c1.199,13.698-9.361,25.589-23.098,26.161c-46.669,1.944-146.498,5.723-182.32,4.125
				c-5.385-0.24-8.905-5.753-6.912-10.762l0,0c1.669-4.197,4.891-7.59,8.994-9.476l164.9-75.787L2762.677,3149.644z"/>
			
				<linearGradient id="SVGID_00000103266434650730674020000001007888693588395916_" gradientUnits="userSpaceOnUse" x1="-21.9324" y1="3149.4983" x2="31.704" y2="3149.4983" gradientTransform="matrix(-1 0 0 1 2745.8667 0)">
				<stop  offset="0" style="stop-color:#FEBBBA"/>
				<stop  offset="1" style="stop-color:#FF928E"/>
			</linearGradient>
			<path style="fill:url(#SVGID_00000103266434650730674020000001007888693588395916_);" d="M2767.799,3128.842l-5.025,42.347
				c0,0-28.885,13.447-48.612-1.695l11.963-47.191L2767.799,3128.842z"/>
			
				<linearGradient id="SVGID_00000111172598236152811590000007213623177716693130_" gradientUnits="userSpaceOnUse" x1="-30.5055" y1="1682.9374" x2="-55.8022" y2="2593.6411" gradientTransform="matrix(-1 0 0 1 2745.8667 0)">
				<stop  offset="0" style="stop-color:#4F52FF"/>
				<stop  offset="1" style="stop-color:#4042E2"/>
			</linearGradient>
			<path style="fill:url(#SVGID_00000111172598236152811590000007213623177716693130_);" d="M2764.023,2332.714
				c2.171,11.058,11.65,551.848-46.157,794.193c-0.943,3.955,1.062,8.031,4.826,9.568c8.866,3.623,26.248,8.868,47.078,9.569
				c6.45,0.217,12.235-3.976,14.055-10.168c16.524-56.227,95.703-337.946,106.032-607.063c11.541-300.712,0-10.24,0-10.24
				l-6.77-185.882L2764.023,2332.714z"/>
			
				<linearGradient id="SVGID_00000150070314565777134490000018030142609960715178_" gradientUnits="userSpaceOnUse" x1="38.6036" y1="2976.1758" x2="-565.2474" y2="3632.9968" gradientTransform="matrix(-1 0 0 1 2745.8667 0)">
				<stop  offset="0" style="stop-color:#09005D"/>
				<stop  offset="1" style="stop-color:#1A0F91"/>
			</linearGradient>
			<path style="fill:url(#SVGID_00000150070314565777134490000018030142609960715178_);" d="M2952.364,3168.113
				c0,0,9.955,17.874,19.591,65.365c1.741,8.576-4.251,16.786-12.961,17.642c-15.41,1.515-39.134,3.464-58.138,3.333
				c-8.76-0.06-15.596-7.688-14.541-16.385c2.104-17.334,8.663-45.776,28.921-67.943L2952.364,3168.113z"/>
			
				<linearGradient id="SVGID_00000165216508954248579550000016627841542758334140_" gradientUnits="userSpaceOnUse" x1="-215.2402" y1="3146.7476" x2="-168.9295" y2="3146.7476" gradientTransform="matrix(-1 0 0 1 2745.8667 0)">
				<stop  offset="0" style="stop-color:#FEBBBA"/>
				<stop  offset="1" style="stop-color:#FF928E"/>
			</linearGradient>
			<path style="fill:url(#SVGID_00000165216508954248579550000016627841542758334140_);" d="M2961.107,3113.646l-11.74,64.039
				c0,0-11.607,8.635-34.57,2.376l5.604-68.902L2961.107,3113.646z"/>
			
				<linearGradient id="SVGID_00000089534856304167312290000003508889600470473621_" gradientUnits="userSpaceOnUse" x1="-117.9437" y1="1680.5083" x2="-143.2404" y2="2591.2144" gradientTransform="matrix(-1 0 0 1 2745.8667 0)">
				<stop  offset="0" style="stop-color:#4F52FF"/>
				<stop  offset="1" style="stop-color:#4042E2"/>
			</linearGradient>
			<path style="fill:url(#SVGID_00000089534856304167312290000003508889600470473621_);" d="M2992.823,2349.309
				c47.277,285.326-10.255,705.204-29.659,787.385c-1.188,5.031-5.249,8.885-10.348,9.731c-8.661,1.436-22.921,2.607-36.979-1.475
				c-4.844-1.408-8.246-5.777-8.444-10.816c-2.603-66.44,2.083-474.321-41.97-635.518c-2.232-8.168-7.221-15.293-14.124-20.2
				l-85.501-60.785l-6.556-98.253L2992.823,2349.309z"/>
			<g>
				
					<linearGradient id="SVGID_00000006683275667919573080000016402292833987276428_" gradientUnits="userSpaceOnUse" x1="-336.7529" y1="2250.7056" x2="507.2291" y2="1643.3199" gradientTransform="matrix(-1 0 0 1 2745.8667 0)">
					<stop  offset="0" style="stop-color:#4F52FF"/>
					<stop  offset="1" style="stop-color:#4042E2"/>
				</linearGradient>
				<path style="fill:url(#SVGID_00000006683275667919573080000016402292833987276428_);" d="M2691.566,1808.673
					c141.683-2.341,298.014,37.202,298.014,37.202c42.233,246.426,7.386,530.66,7.386,530.66
					c-109.688,28.765-233.422-17.586-233.422-17.586c-18.23-103-103.291-392.877-103.291-392.877
					c-69.225-8.591-126.252-28.564-173.214-54.969c35.822-41.523,52.709-94.358,60.044-125.59
					C2597.177,1801.08,2647.867,1809.396,2691.566,1808.673z"/>
				
					<linearGradient id="SVGID_00000125586795199935739260000013142057569048415361_" gradientUnits="userSpaceOnUse" x1="198.7832" y1="1750.1741" x2="472.8052" y2="1750.1741" gradientTransform="matrix(-1 0 0 1 2745.8667 0)">
					<stop  offset="0" style="stop-color:#FEBBBA"/>
					<stop  offset="1" style="stop-color:#FF928E"/>
				</linearGradient>
				<path style="fill:url(#SVGID_00000125586795199935739260000013142057569048415361_);" d="M2273.062,1599.983
					c13.918-16.811,31.534-8.858,31.534-8.858c20.849,88.072,130.173,159.483,242.488,194.389
					c-7.335,31.232-24.222,84.068-60.044,125.59C2300.643,1806.3,2273.062,1599.983,2273.062,1599.983z"/>
			</g>
			<g>
				
					<linearGradient id="SVGID_00000086651610994656870560000013000846383428308614_" gradientUnits="userSpaceOnUse" x1="10035.2461" y1="1702.4894" x2="10215.7813" y2="2113.248" gradientTransform="matrix(1 0 0 1 -7701.9111 0)">
					<stop  offset="0" style="stop-color:#FEBBBA"/>
					<stop  offset="1" style="stop-color:#FF928E"/>
				</linearGradient>
				<path style="fill:url(#SVGID_00000086651610994656870560000013000846383428308614_);" d="M2302.221,1541.656
					c-11.705-15.958-27.844-33.515-42.923-48.802c-6.611,0.017-16.457,6.876-16.457,6.876c-5.681,10.267-12.612,18.934-15.86,31.353
					c-2.459,9.405-0.955,19.455,3.795,28.015c4.769,8.591,11.274,19.757,17.424,28.496c11.64,16.54,28.239,16.665,28.239,16.665
					c-1.456,4.629,15.408,11.679,25.338-7.256C2302.125,1587.926,2307.644,1549.049,2302.221,1541.656z"/>
			</g>
			
				<linearGradient id="SVGID_00000164506852758650873240000003048406910257978003_" gradientUnits="userSpaceOnUse" x1="-447.9668" y1="2096.1699" x2="396.0133" y2="1488.7856" gradientTransform="matrix(-1 0 0 1 2745.8667 0)">
				<stop  offset="0" style="stop-color:#4F52FF"/>
				<stop  offset="1" style="stop-color:#4042E2"/>
			</linearGradient>
			<path style="fill:url(#SVGID_00000164506852758650873240000003048406910257978003_);" d="M2935.237,1983.066l54.343-137.19
				c0,0,132.34,89.919,154.104,203.926c-25.005,1.843-70.508,8.346-115.044,30.834
				C3018.852,2026.803,2935.237,1983.066,2935.237,1983.066z"/>
			
				<linearGradient id="SVGID_00000116221248864856013730000017690688070130566278_" gradientUnits="userSpaceOnUse" x1="-400.8337" y1="2138.3191" x2="-54.0573" y2="2138.3191" gradientTransform="matrix(-1 0 0 1 2745.8667 0)">
				<stop  offset="0" style="stop-color:#FEBBBA"/>
				<stop  offset="1" style="stop-color:#FF928E"/>
			</linearGradient>
			<path style="fill:url(#SVGID_00000116221248864856013730000017690688070130566278_);" d="M2819.587,2112.157
				c0,0,148.583,83.972,198.718,12.27c10.409-14.888,12.897-29.685,10.334-43.791c44.537-22.488,90.04-28.992,115.044-30.834
				c6.562,34.369,3.093,70.924-17.104,107.869c-87.817,160.645-326.656-8.878-326.656-8.878L2819.587,2112.157z"/>
			
				<linearGradient id="SVGID_00000129924513266357023750000003200581091683465088_" gradientUnits="userSpaceOnUse" x1="-134.5571" y1="1767.5924" x2="2.5469" y2="1767.5924" gradientTransform="matrix(-1 0 0 1 2745.8667 0)">
				<stop  offset="0" style="stop-color:#FEBBBA"/>
				<stop  offset="1" style="stop-color:#FF928E"/>
			</linearGradient>
			<path style="fill:url(#SVGID_00000129924513266357023750000003200581091683465088_);" d="M2835.08,1693.649l45.081,130.372
				c0.748,2.16-0.141,4.551-2.14,5.657c-12.289,6.794-56.563,26.433-109.917-7.394c-5.557-3.524-9.341-9.271-10.185-15.797
				l-14.598-112.839H2835.08z"/>
			<g>
				
					<linearGradient id="SVGID_00000098919001828586988880000012395809473392257433_" gradientUnits="userSpaceOnUse" x1="-5452.144" y1="-1537.5883" x2="-5503.3784" y2="-1706.5718" gradientTransform="matrix(-0.746 -0.6659 -0.6659 0.746 -2380.4685 -803.1727)">
					<stop  offset="0" style="stop-color:#FEBBBA"/>
					<stop  offset="1" style="stop-color:#FF928E"/>
				</linearGradient>
				<path style="fill:url(#SVGID_00000098919001828586988880000012395809473392257433_);" d="M2736.99,1572.921
					c0,0-49.504,93.186-43.159,130.828c6.346,37.642,67.698,34.94,121.272,4.368l37.438-100.62L2736.99,1572.921z"/>
				
					<linearGradient id="SVGID_00000173120173147040766360000003233149276119355554_" gradientUnits="userSpaceOnUse" x1="-5498.3677" y1="-1832.016" x2="-5455.5103" y2="-1587.5714" gradientTransform="matrix(-0.746 -0.6659 -0.6659 0.746 -2380.4685 -803.1727)">
					<stop  offset="0" style="stop-color:#09005D"/>
					<stop  offset="1" style="stop-color:#1A0F91"/>
				</linearGradient>
				<path style="fill:url(#SVGID_00000173120173147040766360000003233149276119355554_);" d="M2812.736,1658.703
					c-2.178-0.966-2.981-3.629-1.677-5.622c3.966-6.058,11.4-18.42,13.773-29.241c0,0,8.899-5.7-22.651-13.252
					c-31.549-7.552-78.599-19.274-88.488-46.128c-9.643-26.182,15.691-92.027,56.108-39.564c1.538,1.997,4.55,2.042,6.085,0.043
					c6.626-8.624,24.044-26.523,48.229-15.671c22.632,10.155,25.181,26.738,24.871,35.097c-0.091,2.459,2.107,4.37,4.524,3.91
					c11.443-2.182,38.902-4.056,51.718,24.111c10.557,23.201,3.695,36.336-2.553,42.759c-2.025,2.081-1.138,5.508,1.638,6.358
					c7.52,2.302,17.231,8.678,16.259,26.297c-1.344,24.357-28.577,22.211-36.33,21.101c-1.271-0.183-2.551,0.254-3.411,1.206
					c-6.649,7.356-36.602,38.595-69.02,42.361c-2.807,0.326-4.983-2.446-4.063-5.119l14.03-40.782
					c0.651-1.894-0.255-3.972-2.086-4.783L2812.736,1658.703z"/>
				
					<linearGradient id="SVGID_00000019648119766284541190000014664832829925253517_" gradientUnits="userSpaceOnUse" x1="-5504.5186" y1="-1538.3757" x2="-5550.6143" y2="-1690.411" gradientTransform="matrix(-0.746 -0.6659 -0.6659 0.746 -2380.4685 -803.1727)">
					<stop  offset="0" style="stop-color:#FEBBBA"/>
					<stop  offset="1" style="stop-color:#FF928E"/>
				</linearGradient>
				<path style="fill:url(#SVGID_00000019648119766284541190000014664832829925253517_);" d="M2807.097,1664.492
					c0,0,35.247-24.183,37.822-3.818c2.576,20.365-31.74,29.498-48.737,21.905L2807.097,1664.492z"/>
			</g>
			
				<linearGradient id="SVGID_00000112629907273576692930000003909979142069077644_" gradientUnits="userSpaceOnUse" x1="2699.4829" y1="1747.3403" x2="2821.3923" y2="1747.3403">
				<stop  offset="0" style="stop-color:#2B3582"/>
				<stop  offset="1" style="stop-color:#150E42"/>
			</linearGradient>
			<path style="fill:url(#SVGID_00000112629907273576692930000003909979142069077644_);" d="M2730.637,1828.012
				c-11.44,0-19.9-4.025-25.147-11.964c-17.225-26.048,7.962-85.973,9.042-88.511c0.731-1.715,2.711-2.517,4.424-1.782
				c1.713,0.728,2.513,2.709,1.782,4.424c-0.25,0.588-24.854,59.116-9.619,82.151c3.976,6.012,10.36,8.935,19.518,8.935
				c70.006,0,83.891-150.005,84.022-151.52c0.161-1.856,1.865-3.2,3.653-3.067c1.855,0.161,3.228,1.797,3.067,3.651
				c-0.033,0.39-3.538,39.483-16.118,78.054C2788.277,1800.476,2762.471,1828.012,2730.637,1828.012z"/>
			
				<linearGradient id="SVGID_00000045610191507291555550000014586063559347718297_" gradientUnits="userSpaceOnUse" x1="2256.7383" y1="1751.7352" x2="2721.0076" y2="1751.7352">
				<stop  offset="0" style="stop-color:#2B3582"/>
				<stop  offset="1" style="stop-color:#150E42"/>
			</linearGradient>
			<path style="fill:url(#SVGID_00000045610191507291555550000014586063559347718297_);" d="M2569.503,1930.911
				c-10.65,0-22.018-0.662-34.193-2.095c-94.649-11.136-172.851-75.71-226.146-186.739c-40.089-83.52-52.271-164.845-52.389-165.655
				c-0.27-1.845,1.008-3.556,2.849-3.824c1.851-0.277,3.558,1.006,3.824,2.849c0.119,0.804,12.185,81.252,51.869,163.858
				c36.429,75.833,104.304,169.108,220.784,182.811c65.796,7.736,117.464-6.822,149.44-42.108
				c24.067-26.554,28.715-55.586,28.761-55.876c0.277-1.841,1.996-3.121,3.841-2.828c1.841,0.28,3.106,2.001,2.826,3.843
				C2720.797,1826.287,2703.19,1930.911,2569.503,1930.911z"/>
			<g>
				
					<linearGradient id="SVGID_00000040564451654614123190000017029758625094241437_" gradientUnits="userSpaceOnUse" x1="2720.553" y1="1959.364" x2="2161.8274" y2="2868.918">
					<stop  offset="0" style="stop-color:#09005D"/>
					<stop  offset="1" style="stop-color:#1A0F91"/>
				</linearGradient>
				<path style="fill:url(#SVGID_00000040564451654614123190000017029758625094241437_);" d="M2837.438,2218.392l-81.09-283.19
					c-0.921-3.215-3.663-5.56-6.985-5.947c-14.692-1.713-57.266-6.526-106.42-10.684c-59.208-5.008-127.967-9.065-169.055-5.614
					c-5.84,0.49-9.37,6.668-6.772,11.924c23.364,47.27,119.474,239.555,167.602,302.545c1.594,2.086,4.06,3.307,6.687,3.282
					l188.145-1.75C2835.026,2228.908,2838.946,2223.654,2837.438,2218.392z"/>
				<path style="fill:#91B3FA;" d="M2634.533,1894.019l-58.794-9.796c-3.131-0.522-5.696,2.47-4.7,5.485l5.82,17.635
					c0.506,1.536,1.846,2.647,3.448,2.86l56.576,7.557c2.927,0.391,5.34-2.268,4.668-5.144l-3.604-15.397
					C2637.559,1895.561,2636.213,1894.298,2634.533,1894.019z"/>
				<path style="fill:#91B3FA;" d="M2678.555,1943.792l-4.844-25.228c-0.486-2.53-2.575-4.442-5.137-4.702l-118.748-12.049
					c-3.998-0.406-7.198,3.257-6.26,7.162l7.55,31.438c0.604,2.516,2.794,4.332,5.376,4.462l116.042,5.842
					C2676.311,1950.906,2679.268,1947.506,2678.555,1943.792z"/>
				
					<linearGradient id="SVGID_00000009580477811682961610000007973742877646059669_" gradientUnits="userSpaceOnUse" x1="-79.8035" y1="2101.9597" x2="28.2319" y2="2101.9597" gradientTransform="matrix(-1 0 0 1 2745.8667 0)">
					<stop  offset="0" style="stop-color:#FEBBBA"/>
					<stop  offset="1" style="stop-color:#FF928E"/>
				</linearGradient>
				<path style="fill:url(#SVGID_00000009580477811682961610000007973742877646059669_);" d="M2817.847,2149.972
					c0,0,11.297-46.449,6.74-62.928c-4.557-16.479-13.385-37.667-42.813-32.958c-29.427,4.708-64.14,17.104-64.14,17.104
					s1.754,21.465,24.119,14.54l-13.868,10.731c0,0,1.981,17.187,20.873,8.005l-12.898,14.231c0,0,8.112,14.115,22.011,5.063
					C2771.769,2114.706,2778.432,2155.565,2817.847,2149.972z"/>
			</g>
			
				<linearGradient id="SVGID_00000095321917406720903110000003519053093749401784_" gradientUnits="userSpaceOnUse" x1="2229.864" y1="1555.7683" x2="2290.3599" y2="1555.7683">
				<stop  offset="0" style="stop-color:#09005D"/>
				<stop  offset="1" style="stop-color:#1A0F91"/>
			</linearGradient>
			<path style="fill:url(#SVGID_00000095321917406720903110000003519053093749401784_);" d="M2290.36,1555.768
				c0,24.131-13.542,43.692-30.248,43.692c-16.706,0-30.248-19.561-30.248-43.692c0-24.13,13.542-43.691,30.248-43.691
				C2276.817,1512.077,2290.36,1531.638,2290.36,1555.768z"/>
			
				<linearGradient id="SVGID_00000156555893565533838810000017481489042083006094_" gradientUnits="userSpaceOnUse" x1="1004.228" y1="1765.1608" x2="1080.9556" y2="1647.192" gradientTransform="matrix(-0.9769 0.2135 0.2135 0.9769 2888.0393 -355.333)">
				<stop  offset="0" style="stop-color:#FEBBBA"/>
				<stop  offset="1" style="stop-color:#FF928E"/>
			</linearGradient>
			<path style="fill:url(#SVGID_00000156555893565533838810000017481489042083006094_);" d="M2254.672,1541.908l28.664,15.215
				l12.053,18.752l-16.333,28.631c0,0-16.101-38.913-23.406-46.501C2248.347,1550.418,2250.215,1545.569,2254.672,1541.908z"/>
		</g>
	</g>
</g>
</svg>
