<svg width="50" height="50" viewBox="0 0 50 50" fill="none" xmlns="http://www.w3.org/2000/svg">
<rect x="1" y="1" width="48" height="48" rx="4" stroke="black" stroke-width="2"/>
<path d="M23.2401 23.39C22.6701 23.39 22.2201 23.89 22.2201 24.5C22.2201 25.11 22.6801 25.61 23.2401 25.61C23.8101 25.61 24.2601 25.11 24.2601 24.5C24.2701 23.89 23.8101 23.39 23.2401 23.39ZM26.8901 23.39C26.3201 23.39 25.8701 23.89 25.8701 24.5C25.8701 25.11 26.3301 25.61 26.8901 25.61C27.4601 25.61 27.9101 25.11 27.9101 24.5C27.9101 23.89 27.4601 23.39 26.8901 23.39Z" fill="black"/>
<path d="M31.75 15H18.35C17.22 15 16.3 15.92 16.3 17.06V30.58C16.3 31.72 17.22 32.64 18.35 32.64H29.69L29.16 30.79L30.44 31.98L31.65 33.1L33.8 35V17.06C33.8 15.92 32.88 15 31.75 15ZM27.89 28.06C27.89 28.06 27.53 27.63 27.23 27.25C28.54 26.88 29.04 26.06 29.04 26.06C28.63 26.33 28.24 26.52 27.89 26.65C27.39 26.86 26.91 27 26.44 27.08C25.48 27.26 24.6 27.21 23.85 27.07C23.28 26.96 22.79 26.8 22.38 26.64C22.15 26.55 21.9 26.44 21.65 26.3C21.62 26.28 21.59 26.27 21.56 26.25C21.54 26.24 21.53 26.23 21.52 26.22C21.34 26.12 21.24 26.05 21.24 26.05C21.24 26.05 21.72 26.85 22.99 27.23C22.69 27.61 22.32 28.06 22.32 28.06C20.11 27.99 19.27 26.54 19.27 26.54C19.27 23.32 20.71 20.71 20.71 20.71C22.15 19.63 23.52 19.66 23.52 19.66L23.62 19.78C21.82 20.3 20.99 21.09 20.99 21.09C20.99 21.09 21.21 20.97 21.58 20.8C22.65 20.33 23.5 20.2 23.85 20.17C23.91 20.16 23.96 20.15 24.02 20.15C24.63 20.07 25.32 20.05 26.04 20.13C26.99 20.24 28.01 20.52 29.05 21.09C29.05 21.09 28.26 20.34 26.5601 19.82L26.7 19.66C26.7 19.66 28.07 19.63 29.51 20.71C29.51 20.71 30.95 23.32 30.95 26.54C30.95 26.54 30.1 27.99 27.89 28.06Z" fill="black"/>
</svg>
