<svg width="50" height="50" viewBox="0 0 50 50" fill="none" xmlns="http://www.w3.org/2000/svg">
<rect x="1" y="1" width="48" height="48" rx="4" stroke="black" stroke-width="2"/>
<path fill-rule="evenodd" clip-rule="evenodd" d="M35 25C35 30.5228 30.5228 35 25 35C19.4772 35 15 30.5228 15 25C15 19.4772 19.4772 15 25 15C30.5228 15 35 19.4772 35 25ZM30.2047 23.538C31.0117 23.538 31.6667 24.193 31.6667 25C31.6667 25.5965 31.3041 26.1111 30.8246 26.345C30.848 26.4854 30.8597 26.6257 30.8597 26.7778C30.8597 29.0234 28.2515 30.8362 25.0234 30.8362C21.7953 30.8362 19.1871 29.0234 19.1871 26.7778C19.1871 26.6257 19.1988 26.4737 19.2222 26.3333C18.7076 26.0994 18.3567 25.5965 18.3567 25C18.3567 24.193 19.0117 23.538 19.8187 23.538C20.2047 23.538 20.5673 23.7017 20.8246 23.9473C21.8304 23.2105 23.2222 22.7544 24.7778 22.7076L25.5146 19.2222C25.538 19.152 25.5731 19.0935 25.6316 19.0585C25.6901 19.0234 25.7602 19.0117 25.8304 19.0234L28.2515 19.538C28.4152 19.1871 28.7661 18.9532 29.1754 18.9532C29.7485 18.9532 30.2164 19.421 30.2164 19.9941C30.2164 20.5672 29.7485 21.0351 29.1754 21.0351C28.614 21.0351 28.1579 20.5906 28.1345 20.0409L25.9708 19.5848L25.3041 22.7076C26.8246 22.7661 28.2047 23.2339 29.1988 23.9473C29.4561 23.69 29.807 23.538 30.2047 23.538ZM22.7076 25C22.1345 25 21.6667 25.4678 21.6667 26.0409C21.6667 26.614 22.1345 27.0819 22.7076 27.0819C23.2807 27.0819 23.7485 26.614 23.7485 26.0409C23.7485 25.4678 23.2807 25 22.7076 25ZM25.0117 29.5497C25.4094 29.5497 26.7661 29.5029 27.4795 28.7895C27.5848 28.6842 27.5848 28.5204 27.5029 28.4035C27.3977 28.2982 27.2222 28.2982 27.117 28.4035C26.6608 28.8479 25.7135 29.0117 25.0234 29.0117C24.3333 29.0117 23.3743 28.8479 22.9298 28.4035C22.8246 28.2982 22.6491 28.2982 22.5439 28.4035C22.4386 28.5088 22.4386 28.6842 22.5439 28.7895C23.2456 29.4912 24.614 29.5497 25.0117 29.5497ZM26.2515 26.0409C26.2515 26.614 26.7193 27.0819 27.2924 27.0819C27.8655 27.0819 28.3333 26.614 28.3333 26.0409C28.3333 25.4678 27.8655 25 27.2924 25C26.7193 25 26.2515 25.4678 26.2515 26.0409Z" fill="black"/>
</svg>
